<?xml version="1.0" encoding="UTF-8" standalone="no"?>
<!DOCTYPE svg PUBLIC "-//W3C//DTD SVG 1.1//EN"
 "http://www.w3.org/Graphics/SVG/1.1/DTD/svg11.dtd">
<!-- Generated by graphviz version 3.0.0 (20220226.1711)
 -->
<!-- Pages: 1 -->
<svg width="851pt" height="308pt"
 viewBox="0.00 0.00 850.89 307.95" xmlns="http://www.w3.org/2000/svg" xmlns:xlink="http://www.w3.org/1999/xlink">
<g id="graph0" class="graph" transform="scale(1 1) rotate(0) translate(4 303.95)">
<polygon fill="white" stroke="transparent" points="-4,4 -4,-303.95 846.89,-303.95 846.89,4 -4,4"/>
<!-- Enemy X -->
<g id="node1" class="node">
<title>Enemy X</title>
<polygon fill="lightgray" stroke="black" points="116.81,-155.31 65.81,-155.31 65.81,-137.31 116.81,-137.31 116.81,-155.31"/>
<text text-anchor="middle" x="91.31" y="-144.11" font-family="Times New Roman,serif" font-size="9.00">Enemy X</text>
</g>
<!-- Move Right -->
<g id="node14" class="node">
<title>Move Right</title>
<ellipse fill="lightblue" stroke="black" cx="76.31" cy="-44.55" rx="42.35" ry="42.35"/>
<text text-anchor="middle" x="76.31" y="-42.35" font-family="Times New Roman,serif" font-size="9.00">Move Right</text>
</g>
<!-- Enemy X&#45;&gt;Move Right -->
<g id="edge1" class="edge">
<title>Enemy X&#45;&gt;Move Right</title>
<path fill="none" stroke="red" stroke-width="0.19" d="M90.08,-137.14C88.71,-128.06 86.39,-112.58 84.03,-96.91"/>
<polygon fill="red" stroke="red" stroke-width="0.19" points="87.44,-96.02 82.49,-86.65 80.51,-97.06 87.44,-96.02"/>
</g>
<!-- Move Up -->
<g id="node15" class="node">
<title>Move Up</title>
<ellipse fill="lightblue" stroke="black" cx="485.31" cy="-44.55" rx="37.45" ry="37.45"/>
<text text-anchor="middle" x="485.31" y="-42.35" font-family="Times New Roman,serif" font-size="9.00">Move Up</text>
</g>
<!-- Enemy X&#45;&gt;Move Up -->
<g id="edge2" class="edge">
<title>Enemy X&#45;&gt;Move Up</title>
<path fill="none" stroke="green" stroke-width="0.27" d="M102.72,-137.11C109.3,-132.81 117.91,-127.87 126.31,-125.1 259.27,-81.16 312.39,-148.27 439.31,-89.1 444.29,-86.77 449.08,-83.69 453.57,-80.25"/>
<polygon fill="green" stroke="green" stroke-width="0.27" points="455.91,-82.85 461.28,-73.72 451.39,-77.51 455.91,-82.85"/>
</g>
<!-- Move Down -->
<g id="node16" class="node">
<title>Move Down</title>
<ellipse fill="lightblue" stroke="black" cx="288.31" cy="-44.55" rx="44.6" ry="44.6"/>
<text text-anchor="middle" x="288.31" y="-42.35" font-family="Times New Roman,serif" font-size="9.00">Move Down</text>
</g>
<!-- Enemy X&#45;&gt;Move Down -->
<g id="edge3" class="edge">
<title>Enemy X&#45;&gt;Move Down</title>
<path fill="none" stroke="green" stroke-width="0.48" stroke-dasharray="1,5" d="M103.94,-137.17C110.45,-133.2 118.62,-128.54 126.31,-125.1 172.86,-104.23 190.62,-113.71 235.31,-89.1 239.46,-86.81 243.6,-84.18 247.63,-81.38"/>
<polygon fill="green" stroke="green" stroke-width="0.48" points="249.75,-84.16 255.73,-75.41 245.6,-78.53 249.75,-84.16"/>
</g>
<!-- Shoot Player -->
<g id="node18" class="node">
<title>Shoot Player</title>
<ellipse fill="lightblue" stroke="black" cx="181.31" cy="-44.55" rx="44.6" ry="44.6"/>
<text text-anchor="middle" x="181.31" y="-42.35" font-family="Times New Roman,serif" font-size="9.00">Shoot Player</text>
</g>
<!-- Enemy X&#45;&gt;Shoot Player -->
<g id="edge4" class="edge">
<title>Enemy X&#45;&gt;Shoot Player</title>
<path fill="none" stroke="green" stroke-width="0.28" stroke-dasharray="1,5" d="M98.67,-137.14C108.83,-125.89 127.83,-104.82 145.06,-85.73"/>
<polygon fill="green" stroke="green" stroke-width="0.28" points="147.7,-88.03 151.8,-78.26 142.5,-83.34 147.7,-88.03"/>
</g>
<!-- Hit Player -->
<g id="node19" class="node">
<title>Hit Player</title>
<ellipse fill="lightblue" stroke="black" cx="579.31" cy="-44.55" rx="38.37" ry="38.37"/>
<text text-anchor="middle" x="579.31" y="-42.35" font-family="Times New Roman,serif" font-size="9.00">Hit Player</text>
</g>
<!-- Enemy X&#45;&gt;Hit Player -->
<g id="edge5" class="edge">
<title>Enemy X&#45;&gt;Hit Player</title>
<path fill="none" stroke="red" stroke-width="0.28" stroke-dasharray="1,5" d="M102.38,-137.23C108.99,-132.86 117.74,-127.8 126.31,-125.1 298.61,-70.62 365.77,-161.58 531.31,-89.1 536.66,-86.75 541.81,-83.57 546.62,-79.99"/>
<polygon fill="red" stroke="red" stroke-width="0.28" points="548.85,-82.69 554.39,-73.65 544.43,-77.26 548.85,-82.69"/>
</g>
<!-- Enemy Y -->
<g id="node2" class="node">
<title>Enemy Y</title>
<polygon fill="lightgray" stroke="black" points="749.31,-299.95 699.31,-299.95 699.31,-281.95 749.31,-281.95 749.31,-299.95"/>
<text text-anchor="middle" x="724.31" y="-288.75" font-family="Times New Roman,serif" font-size="9.00">Enemy Y</text>
</g>
<!-- Move Left -->
<g id="node13" class="node">
<title>Move Left</title>
<ellipse fill="lightblue" stroke="black" cx="390.31" cy="-44.55" rx="39.7" ry="39.7"/>
<text text-anchor="middle" x="390.31" y="-42.35" font-family="Times New Roman,serif" font-size="9.00">Move Left</text>
</g>
<!-- Enemy Y&#45;&gt;Move Left -->
<g id="edge6" class="edge">
<title>Enemy Y&#45;&gt;Move Left</title>
<path fill="none" stroke="red" stroke-width="0.19" stroke-dasharray="1,5" d="M698.99,-283.39C649.05,-269.38 536.44,-232.44 464.31,-167.52 440.69,-146.27 422.17,-115.7 409.56,-90.48"/>
<polygon fill="red" stroke="red" stroke-width="0.19" points="412.7,-88.93 405.18,-81.46 406.4,-91.98 412.7,-88.93"/>
</g>
<!-- Enemy Y&#45;&gt;Move Right -->
<g id="edge7" class="edge">
<title>Enemy Y&#45;&gt;Move Right</title>
<path fill="none" stroke="red" stroke-width="0.42" stroke-dasharray="1,5" d="M699.02,-289.76C582.68,-288.3 100.54,-275.71 9.31,-167.52 -13.33,-140.68 11.33,-105 36.88,-79.17"/>
<polygon fill="red" stroke="red" stroke-width="0.42" points="39.35,-81.65 44.07,-72.16 34.47,-76.64 39.35,-81.65"/>
</g>
<!-- Enemy Y&#45;&gt;Move Up -->
<g id="edge8" class="edge">
<title>Enemy Y&#45;&gt;Move Up</title>
<path fill="none" stroke="green" stroke-width="2.83" d="M722.36,-281.72C715.61,-255.05 690.75,-170.06 638.31,-125.1 600.53,-92.71 575.05,-114.56 532.31,-89.1 527.53,-86.25 522.82,-82.85 518.35,-79.23"/>
<polygon fill="green" stroke="green" stroke-width="2.83" points="520.43,-76.4 510.57,-72.54 515.86,-81.71 520.43,-76.4"/>
</g>
<!-- Stand Still -->
<g id="node17" class="node">
<title>Stand Still</title>
<ellipse fill="lightblue" stroke="black" cx="673.31" cy="-44.55" rx="37.45" ry="37.45"/>
<text text-anchor="middle" x="673.31" y="-42.35" font-family="Times New Roman,serif" font-size="9.00">Stand Still</text>
</g>
<!-- Enemy Y&#45;&gt;Stand Still -->
<g id="edge9" class="edge">
<title>Enemy Y&#45;&gt;Stand Still</title>
<path fill="none" stroke="red" stroke-width="0.2" stroke-dasharray="1,5" d="M749.6,-285.98C772.35,-280.94 804.56,-269.82 820.31,-245.95 849.89,-201.11 849.94,-171.17 822.31,-125.1 800.28,-88.36 754.87,-67.65 719.94,-56.63"/>
<polygon fill="red" stroke="red" stroke-width="0.2" points="720.52,-53.15 709.94,-53.65 718.52,-59.86 720.52,-53.15"/>
</g>
<!-- Enemy Y&#45;&gt;Hit Player -->
<g id="edge10" class="edge">
<title>Enemy Y&#45;&gt;Hit Player</title>
<path fill="none" stroke="red" stroke-width="0.16" d="M727.25,-281.79C736,-256.03 759.12,-175.14 724.31,-125.1 698.05,-87.34 666.6,-112.98 627.31,-89.1 622.56,-86.21 617.86,-82.82 613.36,-79.22"/>
<polygon fill="red" stroke="red" stroke-width="0.16" points="615.42,-76.38 605.52,-72.59 610.9,-81.72 615.42,-76.38"/>
</g>
<!-- 977 -->
<g id="node20" class="node">
<title>977</title>
<ellipse fill="white" stroke="black" cx="792.31" cy="-146.31" rx="21.43" ry="21.43"/>
<text text-anchor="middle" x="792.31" y="-144.11" font-family="Times New Roman,serif" font-size="9.00">977</text>
</g>
<!-- Enemy Y&#45;&gt;977 -->
<g id="edge71" class="edge">
<title>Enemy Y&#45;&gt;977</title>
<path fill="none" stroke="green" stroke-width="0.19" stroke-dasharray="1,5" d="M749.48,-283.37C767.96,-277.08 791.77,-265.57 803.31,-245.95 815.76,-224.76 810.92,-196.55 804.19,-175.73"/>
<polygon fill="green" stroke="green" stroke-width="0.19" points="807.44,-174.43 800.8,-166.17 800.84,-176.76 807.44,-174.43"/>
</g>
<!-- 989 -->
<g id="node21" class="node">
<title>989</title>
<ellipse fill="white" stroke="black" cx="773.31" cy="-224.74" rx="21.43" ry="21.43"/>
<text text-anchor="middle" x="773.31" y="-222.54" font-family="Times New Roman,serif" font-size="9.00">989</text>
</g>
<!-- Enemy Y&#45;&gt;989 -->
<g id="edge73" class="edge">
<title>Enemy Y&#45;&gt;989</title>
<path fill="none" stroke="green" stroke-width="0.17" d="M730.51,-281.82C736.55,-273.91 746.02,-261.5 754.52,-250.36"/>
<polygon fill="green" stroke="green" stroke-width="0.17" points="757.47,-252.25 760.76,-242.18 751.91,-248.01 757.47,-252.25"/>
</g>
<!-- Enemy Index -->
<g id="node3" class="node">
<title>Enemy Index</title>
<polygon fill="lightgray" stroke="black" points="265.31,-155.31 201.31,-155.31 201.31,-137.31 265.31,-137.31 265.31,-155.31"/>
<text text-anchor="middle" x="233.31" y="-144.11" font-family="Times New Roman,serif" font-size="9.00">Enemy Index</text>
</g>
<!-- Enemy Index&#45;&gt;Move Left -->
<g id="edge11" class="edge">
<title>Enemy Index&#45;&gt;Move Left</title>
<path fill="none" stroke="green" stroke-width="0.13" d="M250.5,-137.12C276.94,-124.42 326.21,-100.26 342.31,-89.1 346.48,-86.2 350.67,-82.98 354.74,-79.63"/>
<polygon fill="green" stroke="green" stroke-width="0.13" points="357.07,-82.24 362.39,-73.09 352.52,-76.92 357.07,-82.24"/>
</g>
<!-- Enemy Index&#45;&gt;Move Right -->
<g id="edge12" class="edge">
<title>Enemy Index&#45;&gt;Move Right</title>
<path fill="none" stroke="green" stroke-width="0.44" stroke-dasharray="1,5" d="M217.05,-137.24C191.5,-124.46 143.24,-99.93 127.31,-89.1 123.31,-86.37 119.26,-83.39 115.29,-80.3"/>
<polygon fill="green" stroke="green" stroke-width="0.44" points="117.26,-77.39 107.28,-73.85 112.87,-82.85 117.26,-77.39"/>
</g>
<!-- Enemy Index&#45;&gt;Move Down -->
<g id="edge13" class="edge">
<title>Enemy Index&#45;&gt;Move Down</title>
<path fill="none" stroke="red" stroke-width="0.35" stroke-dasharray="1,5" d="M237.81,-137.14C243.27,-127.24 252.92,-109.73 262.33,-92.66"/>
<polygon fill="red" stroke="red" stroke-width="0.35" points="265.45,-94.26 267.21,-83.82 259.32,-90.88 265.45,-94.26"/>
</g>
<!-- Enemy Index&#45;&gt;Stand Still -->
<g id="edge14" class="edge">
<title>Enemy Index&#45;&gt;Stand Still</title>
<path fill="none" stroke="green" stroke-width="0.12" d="M247.21,-137.11C255.17,-132.81 265.5,-127.87 275.31,-125.1 426.22,-82.45 483.42,-153.72 626.31,-89.1 631.63,-86.69 636.75,-83.43 641.52,-79.78"/>
<polygon fill="green" stroke="green" stroke-width="0.12" points="643.79,-82.45 649.2,-73.34 639.29,-77.09 643.79,-82.45"/>
</g>
<!-- Enemy Index&#45;&gt;Shoot Player -->
<g id="edge15" class="edge">
<title>Enemy Index&#45;&gt;Shoot Player</title>
<path fill="none" stroke="red" stroke-width="0.15" stroke-dasharray="1,5" d="M229.05,-137.14C223.98,-127.41 215.07,-110.33 206.32,-93.54"/>
<polygon fill="red" stroke="red" stroke-width="0.15" points="209.23,-91.54 201.5,-84.29 203.02,-94.77 209.23,-91.54"/>
</g>
<!-- Enemy Index&#45;&gt;Hit Player -->
<g id="edge70" class="edge">
<title>Enemy Index&#45;&gt;Hit Player</title>
<path fill="none" stroke="green" stroke-width="0.38" d="M247.25,-137.25C255.22,-132.99 265.55,-128.05 275.31,-125.1 385.27,-91.79 427.27,-137.85 531.31,-89.1 536.4,-86.71 541.34,-83.59 545.98,-80.12"/>
<polygon fill="green" stroke="green" stroke-width="0.38" points="548.46,-82.61 554,-73.58 544.04,-77.19 548.46,-82.61"/>
</g>
<!-- Player X -->
<g id="node4" class="node">
<title>Player X</title>
<polygon fill="lightgray" stroke="black" points="332.81,-155.31 283.81,-155.31 283.81,-137.31 332.81,-137.31 332.81,-155.31"/>
<text text-anchor="middle" x="308.31" y="-144.11" font-family="Times New Roman,serif" font-size="9.00">Player X</text>
</g>
<!-- Player X&#45;&gt;Move Left -->
<g id="edge16" class="edge">
<title>Player X&#45;&gt;Move Left</title>
<path fill="none" stroke="green" stroke-width="0.6" d="M315.02,-137.14C324.63,-125.45 342.95,-103.16 359.11,-83.5"/>
<polygon fill="green" stroke="green" stroke-width="0.6" points="362,-85.5 365.64,-75.55 356.59,-81.06 362,-85.5"/>
</g>
<!-- Player X&#45;&gt;Move Right -->
<g id="edge17" class="edge">
<title>Player X&#45;&gt;Move Right</title>
<path fill="none" stroke="green" stroke-width="0.17" d="M296.8,-137.3C290.41,-133.16 282.19,-128.32 274.31,-125.1 212.05,-99.63 187.17,-119.77 127.31,-89.1 122.94,-86.86 118.63,-84.18 114.47,-81.26"/>
<polygon fill="green" stroke="green" stroke-width="0.17" points="116.28,-78.24 106.19,-75 112.06,-83.82 116.28,-78.24"/>
</g>
<!-- Player X&#45;&gt;Move Up -->
<g id="edge18" class="edge">
<title>Player X&#45;&gt;Move Up</title>
<path fill="none" stroke="red" stroke-width="0.75" stroke-dasharray="1,5" d="M320.6,-137.26C326.94,-133.31 334.87,-128.65 342.31,-125.1 383.8,-105.26 400.27,-113.39 439.31,-89.1 443.74,-86.33 448.12,-83.1 452.3,-79.65"/>
<polygon fill="red" stroke="red" stroke-width="0.75" points="454.85,-82.07 460.08,-72.86 450.25,-76.8 454.85,-82.07"/>
</g>
<!-- Player X&#45;&gt;Move Down -->
<g id="edge19" class="edge">
<title>Player X&#45;&gt;Move Down</title>
<path fill="none" stroke="green" stroke-width="0.43" d="M306.67,-137.14C304.91,-128.36 301.95,-113.62 298.92,-98.49"/>
<polygon fill="green" stroke="green" stroke-width="0.43" points="302.33,-97.68 296.93,-88.56 295.46,-99.05 302.33,-97.68"/>
</g>
<!-- Player X&#45;&gt;Stand Still -->
<g id="edge20" class="edge">
<title>Player X&#45;&gt;Stand Still</title>
<path fill="none" stroke="red" stroke-width="0.63" stroke-dasharray="1,5" d="M319.38,-137.14C325.76,-132.85 334.12,-127.91 342.31,-125.1 462.62,-83.72 511.01,-142.91 626.31,-89.1 631.6,-86.62 636.7,-83.33 641.47,-79.66"/>
<polygon fill="red" stroke="red" stroke-width="0.63" points="643.74,-82.32 649.14,-73.21 639.23,-76.97 643.74,-82.32"/>
</g>
<!-- Player X&#45;&gt;Shoot Player -->
<g id="edge21" class="edge">
<title>Player X&#45;&gt;Shoot Player</title>
<path fill="none" stroke="red" stroke-width="0.25" stroke-dasharray="1,5" d="M297.42,-137.24C282.91,-126.44 256.46,-106.6 234.31,-89.1 230.59,-86.16 226.75,-83.08 222.91,-79.98"/>
<polygon fill="red" stroke="red" stroke-width="0.25" points="225.05,-77.21 215.08,-73.62 220.63,-82.64 225.05,-77.21"/>
</g>
<!-- Player X&#45;&gt;Hit Player -->
<g id="edge22" class="edge">
<title>Player X&#45;&gt;Hit Player</title>
<path fill="none" stroke="green" stroke-width="0.41" stroke-dasharray="1,5" d="M319.75,-137.14C326.12,-132.95 334.34,-128.11 342.31,-125.1 422.27,-94.79 454.78,-127.25 531.31,-89.1 536.34,-86.59 541.24,-83.39 545.87,-79.88"/>
<polygon fill="green" stroke="green" stroke-width="0.41" points="548.37,-82.36 553.86,-73.3 543.92,-76.95 548.37,-82.36"/>
</g>
<!-- Player Y -->
<g id="node5" class="node">
<title>Player Y</title>
<polygon fill="lightgray" stroke="black" points="183.31,-155.31 135.31,-155.31 135.31,-137.31 183.31,-137.31 183.31,-155.31"/>
<text text-anchor="middle" x="159.31" y="-144.11" font-family="Times New Roman,serif" font-size="9.00">Player Y</text>
</g>
<!-- Player Y&#45;&gt;Move Left -->
<g id="edge23" class="edge">
<title>Player Y&#45;&gt;Move Left</title>
<path fill="none" stroke="red" stroke-width="0.34" stroke-dasharray="1,5" d="M170.44,-137.27C176.63,-133.12 184.61,-128.28 192.31,-125.1 255.65,-98.87 281.69,-121.13 342.31,-89.1 346.91,-86.66 351.43,-83.68 355.72,-80.43"/>
<polygon fill="red" stroke="red" stroke-width="0.34" points="358.16,-82.97 363.7,-73.93 353.74,-77.54 358.16,-82.97"/>
</g>
<!-- Player Y&#45;&gt;Move Right -->
<g id="edge24" class="edge">
<title>Player Y&#45;&gt;Move Right</title>
<path fill="none" stroke="red" stroke-width="0.36" d="M152.51,-137.14C143.12,-125.86 125.52,-104.7 109.6,-85.57"/>
<polygon fill="red" stroke="red" stroke-width="0.36" points="112.23,-83.25 103.14,-77.8 106.85,-87.73 112.23,-83.25"/>
</g>
<!-- Player Y&#45;&gt;Move Up -->
<g id="edge25" class="edge">
<title>Player Y&#45;&gt;Move Up</title>
<path fill="none" stroke="red" stroke-width="0.2" d="M170.04,-137.19C176.23,-132.92 184.35,-127.98 192.31,-125.1 296.63,-87.35 339.48,-137.49 439.31,-89.1 444.25,-86.7 449.02,-83.57 453.5,-80.1"/>
<polygon fill="red" stroke="red" stroke-width="0.2" points="455.85,-82.7 461.2,-73.55 451.32,-77.36 455.85,-82.7"/>
</g>
<!-- Player Y&#45;&gt;Move Down -->
<g id="edge26" class="edge">
<title>Player Y&#45;&gt;Move Down</title>
<path fill="none" stroke="red" stroke-width="0.25" d="M170.52,-137.29C185.46,-126.54 212.66,-106.76 235.31,-89.1 239.04,-86.18 242.9,-83.12 246.74,-80.03"/>
<polygon fill="red" stroke="red" stroke-width="0.25" points="249.02,-82.7 254.59,-73.68 244.61,-77.26 249.02,-82.7"/>
</g>
<!-- Player Y&#45;&gt;Shoot Player -->
<g id="edge27" class="edge">
<title>Player Y&#45;&gt;Shoot Player</title>
<path fill="none" stroke="green" stroke-width="0.31" stroke-dasharray="1,5" d="M161.11,-137.14C163.04,-128.36 166.3,-113.62 169.63,-98.49"/>
<polygon fill="green" stroke="green" stroke-width="0.31" points="173.09,-99.08 171.82,-88.56 166.25,-97.57 173.09,-99.08"/>
</g>
<!-- Player Y&#45;&gt;Hit Player -->
<g id="edge28" class="edge">
<title>Player Y&#45;&gt;Hit Player</title>
<path fill="none" stroke="green" stroke-width="0.14" d="M169.7,-137.28C175.91,-132.92 184.16,-127.86 192.31,-125.1 335.76,-76.33 393.04,-151.06 531.31,-89.1 536.64,-86.71 541.78,-83.5 546.59,-79.9"/>
<polygon fill="green" stroke="green" stroke-width="0.14" points="548.82,-82.59 554.34,-73.55 544.39,-77.18 548.82,-82.59"/>
</g>
<!-- Player Health -->
<g id="node6" class="node">
<title>Player Health</title>
<polygon fill="lightgray" stroke="black" points="581.31,-155.31 515.31,-155.31 515.31,-137.31 581.31,-137.31 581.31,-155.31"/>
<text text-anchor="middle" x="548.31" y="-144.11" font-family="Times New Roman,serif" font-size="9.00">Player Health</text>
</g>
<!-- Player Health&#45;&gt;Move Left -->
<g id="edge29" class="edge">
<title>Player Health&#45;&gt;Move Left</title>
<path fill="none" stroke="green" stroke-width="0.89" d="M531.55,-137.31C505.24,-124.63 455.55,-100.24 439.31,-89.1 434.85,-86.04 430.36,-82.61 426,-79.07"/>
<polygon fill="green" stroke="green" stroke-width="0.89" points="428.24,-76.38 418.34,-72.6 423.72,-81.73 428.24,-76.38"/>
</g>
<!-- Player Health&#45;&gt;Move Right -->
<g id="edge30" class="edge">
<title>Player Health&#45;&gt;Move Right</title>
<path fill="none" stroke="green" stroke-width="0.54" stroke-dasharray="1,5" d="M534.79,-137.29C526.79,-132.93 516.29,-127.87 506.31,-125.1 343.31,-79.7 283.11,-155.1 127.31,-89.1 122.6,-87.1 118.01,-84.51 113.64,-81.59"/>
<polygon fill="green" stroke="green" stroke-width="0.54" points="115.64,-78.72 105.51,-75.63 111.5,-84.37 115.64,-78.72"/>
</g>
<!-- Player Health&#45;&gt;Move Up -->
<g id="edge31" class="edge">
<title>Player Health&#45;&gt;Move Up</title>
<path fill="none" stroke="green" stroke-width="0.13" d="M543.15,-137.14C536.02,-125.85 522.64,-104.66 510.54,-85.51"/>
<polygon fill="green" stroke="green" stroke-width="0.13" points="513.4,-83.49 505.11,-76.9 507.49,-87.22 513.4,-83.49"/>
</g>
<!-- Player Health&#45;&gt;Stand Still -->
<g id="edge32" class="edge">
<title>Player Health&#45;&gt;Stand Still</title>
<path fill="none" stroke="red" stroke-width="0.51" d="M560.54,-137.18C576.2,-126.63 603.96,-107.38 626.31,-89.1 630.5,-85.66 634.81,-81.96 639.02,-78.21"/>
<polygon fill="red" stroke="red" stroke-width="0.51" points="641.41,-80.77 646.48,-71.46 636.71,-75.58 641.41,-80.77"/>
</g>
<!-- Player Health&#45;&gt;Shoot Player -->
<g id="edge33" class="edge">
<title>Player Health&#45;&gt;Shoot Player</title>
<path fill="none" stroke="red" stroke-width="0.53" stroke-dasharray="1,5" d="M534.37,-137.22C526.4,-132.95 516.08,-128.01 506.31,-125.1 389.46,-90.22 346.16,-137.67 234.31,-89.1 229.9,-87.18 225.56,-84.79 221.38,-82.11"/>
<polygon fill="red" stroke="red" stroke-width="0.53" points="223.26,-79.15 213.06,-76.29 219.25,-84.89 223.26,-79.15"/>
</g>
<!-- Player Health&#45;&gt;Hit Player -->
<g id="edge34" class="edge">
<title>Player Health&#45;&gt;Hit Player</title>
<path fill="none" stroke="red" stroke-width="0.3" stroke-dasharray="1,5" d="M550.84,-137.14C554.02,-126.94 559.7,-108.66 565.15,-91.1"/>
<polygon fill="red" stroke="red" stroke-width="0.3" points="568.52,-92.07 568.14,-81.48 561.83,-89.99 568.52,-92.07"/>
</g>
<!-- &#45;7 -->
<g id="node7" class="node">
<title>&#45;7</title>
<polygon fill="lightgray" stroke="black" points="497.31,-155.31 473.31,-155.31 473.31,-137.31 497.31,-137.31 497.31,-155.31"/>
<text text-anchor="middle" x="485.31" y="-144.11" font-family="Times New Roman,serif" font-size="9.00">&#45;7</text>
</g>
<!-- &#45;7&#45;&gt;Move Right -->
<g id="edge35" class="edge">
<title>&#45;7&#45;&gt;Move Right</title>
<path fill="none" stroke="red" stroke-width="0.2" stroke-dasharray="1,5" d="M472.87,-140.19C461.08,-135.54 442.77,-128.86 426.31,-125.1 295.83,-95.24 249.89,-142.85 127.31,-89.1 122.63,-87.04 118.06,-84.42 113.69,-81.47"/>
<polygon fill="red" stroke="red" stroke-width="0.2" points="115.7,-78.6 105.58,-75.48 111.54,-84.24 115.7,-78.6"/>
</g>
<!-- &#45;7&#45;&gt;Move Up -->
<g id="edge36" class="edge">
<title>&#45;7&#45;&gt;Move Up</title>
<path fill="none" stroke="green" stroke-width="0.64" stroke-dasharray="1,5" d="M485.31,-137.14C485.31,-127.28 485.31,-109.88 485.31,-92.88"/>
<polygon fill="green" stroke="green" stroke-width="0.64" points="488.81,-92.41 485.31,-82.41 481.81,-92.41 488.81,-92.41"/>
</g>
<!-- &#45;7&#45;&gt;Move Down -->
<g id="edge37" class="edge">
<title>&#45;7&#45;&gt;Move Down</title>
<path fill="none" stroke="green" stroke-width="0.34" stroke-dasharray="1,5" d="M473.26,-141.16C443.1,-130.68 365.04,-103 341.31,-89.1 337.22,-86.7 333.12,-84 329.12,-81.14"/>
<polygon fill="green" stroke="green" stroke-width="0.34" points="331.16,-78.3 321.06,-75.11 326.97,-83.91 331.16,-78.3"/>
</g>
<!-- &#45;7&#45;&gt;Stand Still -->
<g id="edge38" class="edge">
<title>&#45;7&#45;&gt;Stand Still</title>
<path fill="none" stroke="green" stroke-width="0.17" d="M491.98,-137.25C495.79,-133.1 500.89,-128.26 506.31,-125.1 554.38,-97 577.97,-116.73 626.31,-89.1 631.14,-86.33 635.87,-82.99 640.37,-79.4"/>
<polygon fill="green" stroke="green" stroke-width="0.17" points="642.84,-81.89 648.16,-72.73 638.29,-76.57 642.84,-81.89"/>
</g>
<!-- &#45;7&#45;&gt;Shoot Player -->
<g id="edge39" class="edge">
<title>&#45;7&#45;&gt;Shoot Player</title>
<path fill="none" stroke="red" stroke-width="0.18" stroke-dasharray="1,5" d="M473.26,-140.61C461.45,-136.13 442.85,-129.46 426.31,-125.1 342.35,-102.97 312.98,-125.81 234.31,-89.1 229.95,-87.06 225.65,-84.59 221.49,-81.86"/>
<polygon fill="red" stroke="red" stroke-width="0.18" points="223.38,-78.91 213.2,-75.97 219.33,-84.61 223.38,-78.91"/>
</g>
<!-- &#45;7&#45;&gt;Hit Player -->
<g id="edge40" class="edge">
<title>&#45;7&#45;&gt;Hit Player</title>
<path fill="none" stroke="red" stroke-width="0.74" stroke-dasharray="1,5" d="M493,-137.14C504.64,-124.79 527.4,-100.64 546.63,-80.23"/>
<polygon fill="red" stroke="red" stroke-width="0.74" points="549.22,-82.59 553.53,-72.91 544.12,-77.79 549.22,-82.59"/>
</g>
<!-- &#45;8 -->
<g id="node8" class="node">
<title>&#45;8</title>
<polygon fill="lightgray" stroke="black" points="375.31,-155.31 351.31,-155.31 351.31,-137.31 375.31,-137.31 375.31,-155.31"/>
<text text-anchor="middle" x="363.31" y="-144.11" font-family="Times New Roman,serif" font-size="9.00">&#45;8</text>
</g>
<!-- &#45;8&#45;&gt;Move Left -->
<g id="edge41" class="edge">
<title>&#45;8&#45;&gt;Move Left</title>
<path fill="none" stroke="red" stroke-width="0.11" d="M365.52,-137.14C368.19,-127.26 372.91,-109.83 377.52,-92.8"/>
<polygon fill="red" stroke="red" stroke-width="0.11" points="380.97,-93.45 380.2,-82.88 374.21,-91.62 380.97,-93.45"/>
</g>
<!-- &#45;8&#45;&gt;Move Right -->
<g id="edge42" class="edge">
<title>&#45;8&#45;&gt;Move Right</title>
<path fill="none" stroke="green" stroke-width="0.33" stroke-dasharray="1,5" d="M356.79,-136.98C353.01,-132.75 347.91,-127.92 342.31,-125.1 255.76,-81.55 215.12,-130.04 127.31,-89.1 122.68,-86.94 118.14,-84.24 113.79,-81.25"/>
<polygon fill="green" stroke="green" stroke-width="0.33" points="115.81,-78.39 105.7,-75.21 111.62,-84 115.81,-78.39"/>
</g>
<!-- &#45;8&#45;&gt;Move Up -->
<g id="edge43" class="edge">
<title>&#45;8&#45;&gt;Move Up</title>
<path fill="none" stroke="red" stroke-width="0.24" d="M371.16,-137.07C374.97,-133.25 379.72,-128.75 384.31,-125.1 407.15,-106.89 416.39,-107.21 439.31,-89.1 443.41,-85.85 447.57,-82.32 451.63,-78.7"/>
<polygon fill="red" stroke="red" stroke-width="0.24" points="454.26,-81.05 459.28,-71.72 449.53,-75.88 454.26,-81.05"/>
</g>
<!-- &#45;8&#45;&gt;Move Down -->
<g id="edge44" class="edge">
<title>&#45;8&#45;&gt;Move Down</title>
<path fill="none" stroke="green" stroke-width="0.15" stroke-dasharray="1,5" d="M357.17,-137.14C349.16,-126.49 334.55,-107.05 320.83,-88.81"/>
<polygon fill="green" stroke="green" stroke-width="0.15" points="323.43,-86.44 314.62,-80.55 317.84,-90.65 323.43,-86.44"/>
</g>
<!-- &#45;8&#45;&gt;Stand Still -->
<g id="edge45" class="edge">
<title>&#45;8&#45;&gt;Stand Still</title>
<path fill="none" stroke="red" stroke-width="0.32" stroke-dasharray="1,5" d="M369.81,-136.94C373.57,-132.69 378.68,-127.86 384.31,-125.1 481.89,-77.11 528.27,-136.15 626.31,-89.1 631.32,-86.69 636.17,-83.56 640.73,-80.09"/>
<polygon fill="red" stroke="red" stroke-width="0.32" points="643.14,-82.63 648.58,-73.54 638.66,-77.25 643.14,-82.63"/>
</g>
<!-- &#45;8&#45;&gt;Shoot Player -->
<g id="edge46" class="edge">
<title>&#45;8&#45;&gt;Shoot Player</title>
<path fill="none" stroke="red" stroke-width="0.83" stroke-dasharray="1,5" d="M356.22,-136.92C352.44,-132.88 347.5,-128.24 342.31,-125.1 299.02,-98.91 278.59,-113.56 234.31,-89.1 230.16,-86.8 226.02,-84.17 221.99,-81.36"/>
<polygon fill="red" stroke="red" stroke-width="0.83" points="224.02,-78.51 213.9,-75.4 219.87,-84.15 224.02,-78.51"/>
</g>
<!-- &#45;8&#45;&gt;Hit Player -->
<g id="edge47" class="edge">
<title>&#45;8&#45;&gt;Hit Player</title>
<path fill="none" stroke="red" stroke-width="0.16" d="M369.91,-137.14C373.71,-132.96 378.81,-128.12 384.31,-125.1 443.23,-92.66 471.91,-120.66 531.31,-89.1 536.27,-86.46 541.13,-83.19 545.74,-79.63"/>
<polygon fill="red" stroke="red" stroke-width="0.16" points="548.26,-82.09 553.71,-73.01 543.78,-76.7 548.26,-82.09"/>
</g>
<!-- &#45;9 -->
<g id="node9" class="node">
<title>&#45;9</title>
<polygon fill="lightgray" stroke="black" points="417.31,-155.31 393.31,-155.31 393.31,-137.31 417.31,-137.31 417.31,-155.31"/>
<text text-anchor="middle" x="405.31" y="-144.11" font-family="Times New Roman,serif" font-size="9.00">&#45;9</text>
</g>
<!-- &#45;9&#45;&gt;Move Left -->
<g id="edge48" class="edge">
<title>&#45;9&#45;&gt;Move Left</title>
<path fill="none" stroke="green" stroke-width="0.33" stroke-dasharray="1,5" d="M404.08,-137.14C402.63,-127.51 400.1,-110.69 397.6,-94.07"/>
<polygon fill="green" stroke="green" stroke-width="0.33" points="401.01,-93.19 396.06,-83.82 394.09,-94.23 401.01,-93.19"/>
</g>
<!-- &#45;9&#45;&gt;Move Right -->
<g id="edge49" class="edge">
<title>&#45;9&#45;&gt;Move Right</title>
<path fill="none" stroke="red" stroke-width="0.6" stroke-dasharray="1,5" d="M398.82,-136.92C395.05,-132.67 389.95,-127.84 384.31,-125.1 280.59,-74.64 232.48,-136.44 127.31,-89.1 122.65,-87 118.09,-84.34 113.73,-81.38"/>
<polygon fill="red" stroke="red" stroke-width="0.6" points="115.74,-78.51 105.63,-75.37 111.57,-84.13 115.74,-78.51"/>
</g>
<!-- &#45;9&#45;&gt;Move Up -->
<g id="edge50" class="edge">
<title>&#45;9&#45;&gt;Move Up</title>
<path fill="none" stroke="green" stroke-width="0.18" d="M411.85,-137.14C421.43,-125.2 439.86,-102.22 455.87,-82.26"/>
<polygon fill="green" stroke="green" stroke-width="0.18" points="458.79,-84.21 462.31,-74.22 453.33,-79.83 458.79,-84.21"/>
</g>
<!-- &#45;9&#45;&gt;Move Down -->
<g id="edge51" class="edge">
<title>&#45;9&#45;&gt;Move Down</title>
<path fill="none" stroke="red" stroke-width="0.35" stroke-dasharray="1,5" d="M397.26,-137.29C393.41,-133.52 388.68,-129.01 384.31,-125.1 378.98,-120.33 353.6,-99.31 330.27,-80.08"/>
<polygon fill="red" stroke="red" stroke-width="0.35" points="332.41,-77.31 322.47,-73.65 327.96,-82.71 332.41,-77.31"/>
</g>
<!-- &#45;9&#45;&gt;Stand Still -->
<g id="edge52" class="edge">
<title>&#45;9&#45;&gt;Stand Still</title>
<path fill="none" stroke="green" stroke-width="0.39" d="M417.39,-140.73C429.22,-136.34 447.84,-129.73 464.31,-125.1 535.3,-105.11 560.99,-123.35 626.31,-89.1 631.23,-86.51 636.03,-83.28 640.55,-79.74"/>
<polygon fill="green" stroke="green" stroke-width="0.39" points="643,-82.26 648.38,-73.13 638.48,-76.91 643,-82.26"/>
</g>
<!-- &#45;9&#45;&gt;Shoot Player -->
<g id="edge53" class="edge">
<title>&#45;9&#45;&gt;Shoot Player</title>
<path fill="none" stroke="green" stroke-width="1.74" d="M398.7,-137.13C394.91,-132.95 389.81,-128.11 384.31,-125.1 324.17,-92.17 295.69,-119.64 234.31,-89.1 230,-86.95 225.74,-84.4 221.61,-81.63"/>
<polygon fill="green" stroke="green" stroke-width="1.74" points="223.5,-78.68 213.34,-75.67 219.41,-84.36 223.5,-78.68"/>
</g>
<!-- &#45;9&#45;&gt;Hit Player -->
<g id="edge69" class="edge">
<title>&#45;9&#45;&gt;Hit Player</title>
<path fill="none" stroke="red" stroke-width="0.26" stroke-dasharray="1,5" d="M417.41,-141.36C440.64,-133.48 492.59,-114.36 531.31,-89.1 535.96,-86.06 540.6,-82.57 545.07,-78.93"/>
<polygon fill="red" stroke="red" stroke-width="0.26" points="547.55,-81.41 552.87,-72.25 543,-76.09 547.55,-81.41"/>
</g>
<!-- &#45;10 -->
<g id="node10" class="node">
<title>&#45;10</title>
<polygon fill="lightgray" stroke="black" points="714.81,-155.31 685.81,-155.31 685.81,-137.31 714.81,-137.31 714.81,-155.31"/>
<text text-anchor="middle" x="700.31" y="-144.11" font-family="Times New Roman,serif" font-size="9.00">&#45;10</text>
</g>
<!-- &#45;10&#45;&gt;Move Up -->
<g id="edge54" class="edge">
<title>&#45;10&#45;&gt;Move Up</title>
<path fill="none" stroke="green" stroke-width="0.31" stroke-dasharray="1,5" d="M690.64,-137.26C685.24,-133.12 678.22,-128.28 671.31,-125.1 613.33,-98.43 588.3,-119.71 532.31,-89.1 527.43,-86.43 522.66,-83.14 518.15,-79.58"/>
<polygon fill="green" stroke="green" stroke-width="0.31" points="520.22,-76.75 510.33,-72.94 515.69,-82.08 520.22,-76.75"/>
</g>
<!-- &#45;10&#45;&gt;Move Down -->
<g id="edge55" class="edge">
<title>&#45;10&#45;&gt;Move Down</title>
<path fill="none" stroke="red" stroke-width="0.49" d="M685.75,-139.67C673.32,-135.08 654.89,-128.77 638.31,-125.1 508.48,-96.35 463.56,-141.39 341.31,-89.1 336.82,-87.18 332.41,-84.76 328.17,-82.04"/>
<polygon fill="red" stroke="red" stroke-width="0.49" points="329.94,-79.01 319.74,-76.14 325.92,-84.74 329.94,-79.01"/>
</g>
<!-- &#45;10&#45;&gt;Stand Still -->
<g id="edge56" class="edge">
<title>&#45;10&#45;&gt;Stand Still</title>
<path fill="none" stroke="red" stroke-width="0.35" stroke-dasharray="1,5" d="M698.1,-137.14C695.31,-126.86 690.31,-108.38 685.53,-90.7"/>
<polygon fill="red" stroke="red" stroke-width="0.35" points="688.9,-89.75 682.91,-81.02 682.14,-91.58 688.9,-89.75"/>
</g>
<!-- &#45;10&#45;&gt;Hit Player -->
<g id="edge57" class="edge">
<title>&#45;10&#45;&gt;Hit Player</title>
<path fill="none" stroke="green" stroke-width="0.81" stroke-dasharray="1,5" d="M689.21,-137.2C674.71,-126.5 648.66,-106.95 627.31,-89.1 623.1,-85.58 618.75,-81.82 614.47,-78.04"/>
<polygon fill="green" stroke="green" stroke-width="0.81" points="616.68,-75.32 606.89,-71.26 612.02,-80.54 616.68,-75.32"/>
</g>
<!-- &#45;11 -->
<g id="node11" class="node">
<title>&#45;11</title>
<polygon fill="lightgray" stroke="black" points="47.81,-155.31 18.81,-155.31 18.81,-137.31 47.81,-137.31 47.81,-155.31"/>
<text text-anchor="middle" x="33.31" y="-144.11" font-family="Times New Roman,serif" font-size="9.00">&#45;11</text>
</g>
<!-- &#45;11&#45;&gt;Move Left -->
<g id="edge58" class="edge">
<title>&#45;11&#45;&gt;Move Left</title>
<path fill="none" stroke="red" stroke-width="0.83" d="M40.52,-137.3C44.92,-132.95 50.92,-127.89 57.31,-125.1 174.26,-73.88 226.32,-142.46 342.31,-89.1 347.04,-86.92 351.63,-84.1 355.98,-80.95"/>
<polygon fill="red" stroke="red" stroke-width="0.83" points="358.37,-83.53 364.01,-74.56 354.01,-78.05 358.37,-83.53"/>
</g>
<!-- &#45;11&#45;&gt;Move Right -->
<g id="edge59" class="edge">
<title>&#45;11&#45;&gt;Move Right</title>
<path fill="none" stroke="red" stroke-width="0.39" stroke-dasharray="1,5" d="M36.83,-137.14C41.06,-127.33 48.5,-110.05 55.8,-93.13"/>
<polygon fill="red" stroke="red" stroke-width="0.39" points="59.07,-94.39 59.81,-83.82 52.64,-91.61 59.07,-94.39"/>
</g>
<!-- &#45;11&#45;&gt;Move Up -->
<g id="edge60" class="edge">
<title>&#45;11&#45;&gt;Move Up</title>
<path fill="none" stroke="red" stroke-width="0.59" d="M40.48,-137.22C44.88,-132.84 50.88,-127.79 57.31,-125.1 214.58,-59.17 284.02,-159.56 439.31,-89.1 444.31,-86.82 449.12,-83.78 453.61,-80.35"/>
<polygon fill="red" stroke="red" stroke-width="0.59" points="455.94,-82.96 461.34,-73.84 451.43,-77.61 455.94,-82.96"/>
</g>
<!-- &#45;11&#45;&gt;Move Down -->
<g id="edge61" class="edge">
<title>&#45;11&#45;&gt;Move Down</title>
<path fill="none" stroke="green" stroke-width="1.44" d="M41.02,-137.07C45.4,-132.87 51.22,-128.03 57.31,-125.1 129.99,-90.01 162.41,-123.74 235.31,-89.1 239.65,-87.03 243.94,-84.54 248.09,-81.79"/>
<polygon fill="green" stroke="green" stroke-width="1.44" points="250.26,-84.54 256.37,-75.89 246.2,-78.84 250.26,-84.54"/>
</g>
<!-- &#45;11&#45;&gt;Shoot Player -->
<g id="edge62" class="edge">
<title>&#45;11&#45;&gt;Shoot Player</title>
<path fill="none" stroke="red" stroke-width="0.36" stroke-dasharray="1,5" d="M42.27,-136.93C46.63,-133.08 52.05,-128.6 57.31,-125.1 86.43,-105.7 97.98,-108.17 127.31,-89.1 131.38,-86.44 135.52,-83.54 139.59,-80.54"/>
<polygon fill="red" stroke="red" stroke-width="0.36" points="141.98,-83.12 147.82,-74.28 137.74,-77.55 141.98,-83.12"/>
</g>
<!-- &#45;12 -->
<g id="node12" class="node">
<title>&#45;12</title>
<polygon fill="lightgray" stroke="black" points="628.81,-155.31 599.81,-155.31 599.81,-137.31 628.81,-137.31 628.81,-155.31"/>
<text text-anchor="middle" x="614.31" y="-144.11" font-family="Times New Roman,serif" font-size="9.00">&#45;12</text>
</g>
<!-- &#45;12&#45;&gt;Move Left -->
<g id="edge63" class="edge">
<title>&#45;12&#45;&gt;Move Left</title>
<path fill="none" stroke="red" stroke-width="0.37" d="M606.56,-137.15C602.16,-132.97 596.34,-128.14 590.31,-125.1 528.7,-94.03 500.49,-120.97 439.31,-89.1 434.45,-86.56 429.69,-83.45 425.15,-80.05"/>
<polygon fill="red" stroke="red" stroke-width="0.37" points="427.26,-77.25 417.28,-73.71 422.87,-82.71 427.26,-77.25"/>
</g>
<!-- &#45;12&#45;&gt;Move Right -->
<g id="edge64" class="edge">
<title>&#45;12&#45;&gt;Move Right</title>
<path fill="none" stroke="red" stroke-width="0.11" d="M607.15,-137.18C602.76,-132.79 596.76,-127.74 590.31,-125.1 399.31,-46.86 318.04,-167.98 127.31,-89.1 122.59,-87.14 117.99,-84.58 113.6,-81.68"/>
<polygon fill="red" stroke="red" stroke-width="0.11" points="115.61,-78.81 105.47,-75.73 111.48,-84.46 115.61,-78.81"/>
</g>
<!-- &#45;12&#45;&gt;Move Up -->
<g id="edge65" class="edge">
<title>&#45;12&#45;&gt;Move Up</title>
<path fill="none" stroke="red" stroke-width="0.81" d="M605.21,-137.11C600.83,-133.3 595.42,-128.81 590.31,-125.1 565.75,-107.28 556.43,-107.49 532.31,-89.1 527.99,-85.81 523.62,-82.19 519.36,-78.49"/>
<polygon fill="red" stroke="red" stroke-width="0.81" points="521.66,-75.85 511.87,-71.8 517,-81.07 521.66,-75.85"/>
</g>
<!-- &#45;12&#45;&gt;Move Down -->
<g id="edge66" class="edge">
<title>&#45;12&#45;&gt;Move Down</title>
<path fill="none" stroke="green" stroke-width="0.34" stroke-dasharray="1,5" d="M606.66,-136.93C602.29,-132.69 596.47,-127.86 590.31,-125.1 488.29,-79.32 443.6,-134.25 341.31,-89.1 336.91,-87.15 332.58,-84.74 328.41,-82.05"/>
<polygon fill="green" stroke="green" stroke-width="0.34" points="330.29,-79.1 320.09,-76.22 326.26,-84.83 330.29,-79.1"/>
</g>
<!-- &#45;12&#45;&gt;Stand Still -->
<g id="edge67" class="edge">
<title>&#45;12&#45;&gt;Stand Still</title>
<path fill="none" stroke="green" stroke-width="0.62" d="M619.14,-137.14C625.74,-125.98 638.06,-105.15 649.28,-86.18"/>
<polygon fill="green" stroke="green" stroke-width="0.62" points="652.42,-87.74 654.5,-77.35 646.4,-84.18 652.42,-87.74"/>
</g>
<!-- &#45;12&#45;&gt;Hit Player -->
<g id="edge68" class="edge">
<title>&#45;12&#45;&gt;Hit Player</title>
<path fill="none" stroke="red" stroke-width="0.32" stroke-dasharray="1,5" d="M611.44,-137.14C607.83,-126.86 601.35,-108.38 595.15,-90.7"/>
<polygon fill="red" stroke="red" stroke-width="0.32" points="598.36,-89.29 591.75,-81.02 591.76,-91.61 598.36,-89.29"/>
</g>
<!-- 977&#45;&gt;Stand Still -->
<g id="edge72" class="edge">
<title>977&#45;&gt;Stand Still</title>
<path fill="none" stroke="green" stroke-width="0.76" d="M776.26,-131.85C759.31,-117.64 732.01,-94.76 709.78,-76.13"/>
<polygon fill="green" stroke="green" stroke-width="0.76" points="711.76,-73.22 701.85,-69.48 707.27,-78.59 711.76,-73.22"/>
</g>
<!-- 989&#45;&gt;977 -->
<g id="edge74" class="edge">
<title>989&#45;&gt;977</title>
<path fill="none" stroke="green" stroke-width="0.71" d="M778.2,-204.05C780.25,-195.83 782.67,-186.09 784.92,-177.02"/>
<polygon fill="green" stroke="green" stroke-width="0.71" points="788.35,-177.74 787.36,-167.19 781.56,-176.05 788.35,-177.74"/>
</g>
</g>
</svg>
